<svg width="240" height="39" viewBox="0 0 240 39" fill="none" xmlns="http://www.w3.org/2000/svg">
<path d="M26.1193 17.3076H24.5341C24.4403 16.8517 24.2763 16.4511 24.0419 16.1059C23.8118 15.7607 23.5305 15.471 23.1982 15.2366C22.87 14.998 22.5057 14.819 22.1051 14.6997C21.7045 14.5803 21.2869 14.5207 20.8523 14.5207C20.0597 14.5207 19.3416 14.721 18.6982 15.1215C18.0589 15.5221 17.5497 16.1123 17.1705 16.8921C16.7955 17.672 16.608 18.6286 16.608 19.7622C16.608 20.8957 16.7955 21.8524 17.1705 22.6322C17.5497 23.412 18.0589 24.0022 18.6982 24.4028C19.3416 24.8034 20.0597 25.0036 20.8523 25.0036C21.2869 25.0036 21.7045 24.944 22.1051 24.8247C22.5057 24.7053 22.87 24.5285 23.1982 24.2941C23.5305 24.0555 23.8118 23.7636 24.0419 23.4184C24.2763 23.069 24.4403 22.6684 24.5341 22.2167H26.1193C26 22.8857 25.7827 23.4845 25.4673 24.0129C25.152 24.5413 24.7599 24.9909 24.2912 25.3616C23.8224 25.7281 23.2962 26.0072 22.7124 26.199C22.1328 26.3907 21.5128 26.4866 20.8523 26.4866C19.7358 26.4866 18.7429 26.2139 17.8736 25.6684C17.0043 25.123 16.3203 24.3474 15.8217 23.3417C15.3232 22.336 15.0739 21.1428 15.0739 19.7622C15.0739 18.3815 15.3232 17.1883 15.8217 16.1826C16.3203 15.1769 17.0043 14.4014 17.8736 13.8559C18.7429 13.3105 19.7358 13.0377 20.8523 13.0377C21.5128 13.0377 22.1328 13.1336 22.7124 13.3254C23.2962 13.5171 23.8224 13.7984 24.2912 14.1691C24.7599 14.5356 25.152 14.983 25.4673 15.5115C25.7827 16.0356 26 16.6343 26.1193 17.3076ZM27.9139 17.8957V16.4894H35.8912V17.8957H32.6696V26.3076H31.161V17.8957H27.9139ZM40.4711 26.5377C39.8489 26.5377 39.2843 26.4205 38.7772 26.1862C38.2701 25.9475 37.8674 25.6045 37.5691 25.157C37.2708 24.7053 37.1216 24.1599 37.1216 23.5207C37.1216 22.9582 37.2324 22.5022 37.454 22.1528C37.6756 21.7991 37.9718 21.5221 38.3425 21.3218C38.7132 21.1215 39.1223 20.9724 39.5698 20.8744C40.0215 20.7721 40.4753 20.6911 40.9313 20.6315C41.5279 20.5548 42.0115 20.4972 42.3823 20.4589C42.7573 20.4163 43.03 20.346 43.2005 20.248C43.3752 20.1499 43.4625 19.9795 43.4625 19.7366V19.6855C43.4625 19.0548 43.29 18.5647 42.9448 18.2153C42.6039 17.8659 42.0861 17.6911 41.3915 17.6911C40.6713 17.6911 40.1067 17.8488 39.6976 18.1642C39.2885 18.4795 39.0009 18.8161 38.8347 19.1741L37.4029 18.6627C37.6586 18.0661 37.9995 17.6017 38.4256 17.2693C38.856 16.9326 39.3248 16.6982 39.8319 16.5661C40.3432 16.4298 40.8461 16.3616 41.3404 16.3616C41.6557 16.3616 42.0179 16.3999 42.427 16.4767C42.8404 16.5491 43.2388 16.7004 43.6223 16.9305C44.0101 17.1606 44.3319 17.5079 44.5875 17.9724C44.8432 18.4369 44.9711 19.059 44.9711 19.8389V26.3076H43.4625V24.9781H43.3858C43.2836 25.1911 43.1131 25.4191 42.8745 25.662C42.6358 25.9049 42.3184 26.1116 41.9221 26.282C41.5257 26.4525 41.0421 26.5377 40.4711 26.5377ZM40.7012 25.1826C41.2978 25.1826 41.8006 25.0654 42.2097 24.8311C42.623 24.5967 42.9341 24.2941 43.1429 23.9234C43.356 23.5526 43.4625 23.1627 43.4625 22.7536V21.373C43.3986 21.4497 43.258 21.52 43.0407 21.5839C42.8276 21.6436 42.5804 21.6968 42.2992 21.7437C42.0222 21.7863 41.7516 21.8247 41.4874 21.8588C41.2275 21.8886 41.0165 21.9142 40.8546 21.9355C40.4625 21.9866 40.0961 22.0697 39.7551 22.1847C39.4185 22.2955 39.1458 22.4639 38.937 22.6897C38.7324 22.9113 38.6301 23.2139 38.6301 23.5974C38.6301 24.1215 38.824 24.5178 39.2118 24.7863C39.6039 25.0505 40.1003 25.1826 40.7012 25.1826ZM46.3885 17.8957V16.4894H54.3658V17.8957H51.1442V26.3076H49.6357V17.8957H46.3885ZM57.8702 20.0434H60.6827C61.8333 20.0434 62.7132 20.3353 63.3226 20.9191C63.932 21.5029 64.2367 22.2423 64.2367 23.1372C64.2367 23.7252 64.1003 24.26 63.8276 24.7416C63.5549 25.2188 63.1543 25.6002 62.6259 25.8857C62.0975 26.167 61.4498 26.3076 60.6827 26.3076H56.5662V16.4894H58.0748V24.9014H60.6827C61.2793 24.9014 61.7694 24.7437 62.1529 24.4284C62.5364 24.113 62.7282 23.7082 62.7282 23.2139C62.7282 22.694 62.5364 22.27 62.1529 21.9418C61.7694 21.6137 61.2793 21.4497 60.6827 21.4497H57.8702V20.0434ZM73.3853 13.2167V26.3076H71.8001V13.2167H73.3853ZM75.8478 14.623V13.2167H85.666V14.623H81.5495V26.3076H79.9643V14.623H75.8478ZM92.1971 19.9923V21.3985H86.4698V19.9923H92.1971ZM97.7406 26.5377C97.1184 26.5377 96.5538 26.4205 96.0467 26.1862C95.5396 25.9475 95.1369 25.6045 94.8386 25.157C94.5403 24.7053 94.3912 24.1599 94.3912 23.5207C94.3912 22.9582 94.502 22.5022 94.7235 22.1528C94.9451 21.7991 95.2413 21.5221 95.612 21.3218C95.9828 21.1215 96.3919 20.9724 96.8393 20.8744C97.291 20.7721 97.7449 20.6911 98.2008 20.6315C98.7974 20.5548 99.2811 20.4972 99.6518 20.4589C100.027 20.4163 100.3 20.346 100.47 20.248C100.645 20.1499 100.732 19.9795 100.732 19.7366V19.6855C100.732 19.0548 100.559 18.5647 100.214 18.2153C99.8734 17.8659 99.3556 17.6911 98.661 17.6911C97.9409 17.6911 97.3762 17.8488 96.9672 18.1642C96.5581 18.4795 96.2704 18.8161 96.1042 19.1741L94.6724 18.6627C94.9281 18.0661 95.269 17.6017 95.6951 17.2693C96.1255 16.9326 96.5943 16.6982 97.1014 16.5661C97.6127 16.4298 98.1156 16.3616 98.6099 16.3616C98.9252 16.3616 99.2875 16.3999 99.6966 16.4767C100.11 16.5491 100.508 16.7004 100.892 16.9305C101.28 17.1606 101.601 17.5079 101.857 17.9724C102.113 18.4369 102.241 19.059 102.241 19.8389V26.3076H100.732V24.9781H100.655C100.553 25.1911 100.383 25.4191 100.144 25.662C99.9054 25.9049 99.5879 26.1116 99.1916 26.282C98.7953 26.4525 98.3116 26.5377 97.7406 26.5377ZM97.9707 25.1826C98.5673 25.1826 99.0701 25.0654 99.4792 24.8311C99.8926 24.5967 100.204 24.2941 100.412 23.9234C100.626 23.5526 100.732 23.1627 100.732 22.7536V21.373C100.668 21.4497 100.528 21.52 100.31 21.5839C100.097 21.6436 99.85 21.6968 99.5687 21.7437C99.2917 21.7863 99.0211 21.8247 98.7569 21.8588C98.497 21.8886 98.286 21.9142 98.1241 21.9355C97.7321 21.9866 97.3656 22.0697 97.0247 22.1847C96.688 22.2955 96.4153 22.4639 96.2065 22.6897C96.002 22.9113 95.8997 23.2139 95.8997 23.5974C95.8997 24.1215 96.0936 24.5178 96.4814 24.7863C96.8734 25.0505 97.3699 25.1826 97.9707 25.1826ZM110.363 24.2622L113.789 16.4894H115.221L110.977 26.3076H109.75L105.582 16.4894H106.988L110.363 24.2622ZM106.502 16.4894V26.3076H104.994V16.4894H106.502ZM114.224 26.3076V16.4894H115.733V26.3076H114.224ZM125.781 12.8076L126.548 13.7281C126.25 14.0178 125.904 14.2203 125.512 14.3353C125.12 14.4504 124.677 14.5207 124.183 14.5463C123.689 14.5718 123.139 14.5974 122.534 14.623C121.852 14.6485 121.287 14.8147 120.84 15.1215C120.392 15.4284 120.047 15.8715 119.804 16.4511C119.561 17.0306 119.406 17.7423 119.338 18.586H119.466C119.798 17.9724 120.258 17.5207 120.846 17.2309C121.434 16.9411 122.065 16.7963 122.738 16.7963C123.505 16.7963 124.196 16.9752 124.809 17.3332C125.423 17.6911 125.909 18.2217 126.267 18.9248C126.625 19.6279 126.804 20.4951 126.804 21.5264C126.804 22.5534 126.62 23.4397 126.254 24.1855C125.892 24.9312 125.382 25.5065 124.726 25.9113C124.074 26.3119 123.309 26.5122 122.431 26.5122C121.554 26.5122 120.784 26.3055 120.124 25.8921C119.463 25.4745 118.95 24.8566 118.583 24.0384C118.217 23.216 118.034 22.1997 118.034 20.9894V19.9411C118.034 17.7551 118.404 16.0974 119.146 14.9681C119.892 13.8389 121.012 13.2551 122.508 13.2167C123.037 13.1997 123.507 13.1954 123.921 13.2039C124.334 13.2124 124.694 13.1933 125.001 13.1464C125.308 13.0995 125.568 12.9866 125.781 12.8076ZM122.431 25.157C123.024 25.157 123.533 25.0079 123.959 24.7096C124.39 24.4113 124.72 23.9916 124.95 23.4504C125.18 22.9049 125.295 22.2636 125.295 21.5264C125.295 20.8105 125.178 20.2011 124.944 19.6982C124.713 19.1954 124.383 18.8119 123.953 18.5477C123.522 18.2835 123.007 18.1514 122.406 18.1514C121.967 18.1514 121.573 18.2259 121.223 18.3751C120.874 18.5242 120.576 18.7437 120.328 19.0335C120.081 19.3232 119.89 19.6769 119.753 20.0945C119.621 20.5122 119.551 20.9894 119.542 21.5264C119.542 22.6258 119.8 23.5058 120.316 24.1663C120.831 24.8268 121.537 25.157 122.431 25.157ZM132 26.5377C131.378 26.5377 130.814 26.4205 130.306 26.1862C129.799 25.9475 129.397 25.6045 129.098 25.157C128.8 24.7053 128.651 24.1599 128.651 23.5207C128.651 22.9582 128.762 22.5022 128.983 22.1528C129.205 21.7991 129.501 21.5221 129.872 21.3218C130.243 21.1215 130.652 20.9724 131.099 20.8744C131.551 20.7721 132.005 20.6911 132.461 20.6315C133.057 20.5548 133.541 20.4972 133.912 20.4589C134.287 20.4163 134.559 20.346 134.73 20.248C134.904 20.1499 134.992 19.9795 134.992 19.7366V19.6855C134.992 19.0548 134.819 18.5647 134.474 18.2153C134.133 17.8659 133.615 17.6911 132.921 17.6911C132.201 17.6911 131.636 17.8488 131.227 18.1642C130.818 18.4795 130.53 18.8161 130.364 19.1741L128.932 18.6627C129.188 18.0661 129.529 17.6017 129.955 17.2693C130.385 16.9326 130.854 16.6982 131.361 16.5661C131.873 16.4298 132.375 16.3616 132.87 16.3616C133.185 16.3616 133.547 16.3999 133.956 16.4767C134.37 16.5491 134.768 16.7004 135.152 16.9305C135.539 17.1606 135.861 17.5079 136.117 17.9724C136.373 18.4369 136.5 19.059 136.5 19.8389V26.3076H134.992V24.9781H134.915C134.813 25.1911 134.642 25.4191 134.404 25.662C134.165 25.9049 133.848 26.1116 133.451 26.282C133.055 26.4525 132.571 26.5377 132 26.5377ZM132.23 25.1826C132.827 25.1826 133.33 25.0654 133.739 24.8311C134.152 24.5967 134.463 24.2941 134.672 23.9234C134.885 23.5526 134.992 23.1627 134.992 22.7536V21.373C134.928 21.4497 134.787 21.52 134.57 21.5839C134.357 21.6436 134.11 21.6968 133.828 21.7437C133.551 21.7863 133.281 21.8247 133.017 21.8588C132.757 21.8886 132.546 21.9142 132.384 21.9355C131.992 21.9866 131.625 22.0697 131.284 22.1847C130.948 22.2955 130.675 22.4639 130.466 22.6897C130.262 22.9113 130.159 23.2139 130.159 23.5974C130.159 24.1215 130.353 24.5178 130.741 24.7863C131.133 25.0505 131.63 25.1826 132.23 25.1826ZM143.242 26.5122C142.322 26.5122 141.529 26.2948 140.865 25.8602C140.2 25.4255 139.688 24.8268 139.33 24.064C138.972 23.3012 138.794 22.4298 138.794 21.4497C138.794 20.4525 138.977 19.5725 139.343 18.8097C139.714 18.0427 140.23 17.444 140.89 17.0136C141.555 16.5789 142.33 16.3616 143.217 16.3616C143.907 16.3616 144.529 16.4894 145.083 16.7451C145.637 17.0008 146.091 17.3588 146.445 17.819C146.798 18.2792 147.018 18.8161 147.103 19.4298H145.595C145.48 18.9823 145.224 18.586 144.828 18.2409C144.436 17.8914 143.907 17.7167 143.242 17.7167C142.654 17.7167 142.139 17.8701 141.695 18.1769C141.257 18.4795 140.914 18.9078 140.666 19.4617C140.423 20.0115 140.302 20.657 140.302 21.3985C140.302 22.157 140.421 22.8176 140.66 23.3801C140.903 23.9426 141.244 24.3794 141.683 24.6904C142.126 25.0015 142.646 25.157 143.242 25.157C143.634 25.157 143.99 25.0889 144.31 24.9525C144.629 24.8161 144.9 24.6201 145.122 24.3644C145.343 24.1088 145.501 23.8019 145.595 23.444H147.103C147.018 24.0235 146.807 24.5455 146.47 25.01C146.138 25.4703 145.697 25.8367 145.147 26.1095C144.602 26.3779 143.967 26.5122 143.242 26.5122ZM153.297 26.5122C152.377 26.5122 151.584 26.2948 150.919 25.8602C150.254 25.4255 149.743 24.8268 149.385 24.064C149.027 23.3012 148.848 22.4298 148.848 21.4497C148.848 20.4525 149.031 19.5725 149.398 18.8097C149.769 18.0427 150.284 17.444 150.945 17.0136C151.61 16.5789 152.385 16.3616 153.271 16.3616C153.962 16.3616 154.584 16.4894 155.138 16.7451C155.692 17.0008 156.146 17.3588 156.499 17.819C156.853 18.2792 157.073 18.8161 157.158 19.4298H155.649C155.534 18.9823 155.279 18.586 154.882 18.2409C154.49 17.8914 153.962 17.7167 153.297 17.7167C152.709 17.7167 152.193 17.8701 151.75 18.1769C151.311 18.4795 150.968 18.9078 150.721 19.4617C150.478 20.0115 150.357 20.657 150.357 21.3985C150.357 22.157 150.476 22.8176 150.715 23.3801C150.958 23.9426 151.298 24.3794 151.737 24.6904C152.181 25.0015 152.7 25.157 153.297 25.157C153.689 25.157 154.045 25.0889 154.365 24.9525C154.684 24.8161 154.955 24.6201 155.176 24.3644C155.398 24.1088 155.556 23.8019 155.649 23.444H157.158C157.073 24.0235 156.862 24.5455 156.525 25.01C156.193 25.4703 155.752 25.8367 155.202 26.1095C154.656 26.3779 154.021 26.5122 153.297 26.5122ZM162.252 26.5377C161.63 26.5377 161.066 26.4205 160.558 26.1862C160.051 25.9475 159.649 25.6045 159.35 25.157C159.052 24.7053 158.903 24.1599 158.903 23.5207C158.903 22.9582 159.014 22.5022 159.235 22.1528C159.457 21.7991 159.753 21.5221 160.124 21.3218C160.494 21.1215 160.904 20.9724 161.351 20.8744C161.803 20.7721 162.257 20.6911 162.713 20.6315C163.309 20.5548 163.793 20.4972 164.164 20.4589C164.539 20.4163 164.811 20.346 164.982 20.248C165.156 20.1499 165.244 19.9795 165.244 19.7366V19.6855C165.244 19.0548 165.071 18.5647 164.726 18.2153C164.385 17.8659 163.867 17.6911 163.173 17.6911C162.453 17.6911 161.888 17.8488 161.479 18.1642C161.07 18.4795 160.782 18.8161 160.616 19.1741L159.184 18.6627C159.44 18.0661 159.781 17.6017 160.207 17.2693C160.637 16.9326 161.106 16.6982 161.613 16.5661C162.124 16.4298 162.627 16.3616 163.122 16.3616C163.437 16.3616 163.799 16.3999 164.208 16.4767C164.622 16.5491 165.02 16.7004 165.404 16.9305C165.791 17.1606 166.113 17.5079 166.369 17.9724C166.624 18.4369 166.752 19.059 166.752 19.8389V26.3076H165.244V24.9781H165.167C165.065 25.1911 164.894 25.4191 164.656 25.662C164.417 25.9049 164.1 26.1116 163.703 26.282C163.307 26.4525 162.823 26.5377 162.252 26.5377ZM162.482 25.1826C163.079 25.1826 163.582 25.0654 163.991 24.8311C164.404 24.5967 164.715 24.2941 164.924 23.9234C165.137 23.5526 165.244 23.1627 165.244 22.7536V21.373C165.18 21.4497 165.039 21.52 164.822 21.5839C164.609 21.6436 164.362 21.6968 164.08 21.7437C163.803 21.7863 163.533 21.8247 163.269 21.8588C163.009 21.8886 162.798 21.9142 162.636 21.9355C162.244 21.9866 161.877 22.0697 161.536 22.1847C161.2 22.2955 160.927 22.4639 160.718 22.6897C160.514 22.9113 160.411 23.2139 160.411 23.5974C160.411 24.1215 160.605 24.5178 160.993 24.7863C161.385 25.0505 161.882 25.1826 162.482 25.1826ZM168.457 29.1201V24.9014H169.276C169.476 24.6926 169.648 24.4667 169.793 24.2238C169.938 23.9809 170.064 23.6933 170.17 23.3609C170.281 23.0242 170.375 22.6151 170.452 22.1336C170.528 21.6478 170.597 21.0619 170.656 20.3758L170.989 16.4894H177.227V24.9014H178.736V29.1201H177.227V26.3076H169.966V29.1201H168.457ZM170.989 24.9014H175.719V17.8957H172.395L172.139 20.3758C172.033 21.4028 171.901 22.2998 171.743 23.0668C171.585 23.8339 171.334 24.4454 170.989 24.9014ZM184.727 26.5122C183.84 26.5122 183.063 26.3012 182.394 25.8794C181.729 25.4575 181.209 24.8673 180.834 24.1088C180.463 23.3502 180.278 22.4639 180.278 21.4497C180.278 20.4269 180.463 19.5342 180.834 18.7714C181.209 18.0086 181.729 17.4163 182.394 16.9944C183.063 16.5725 183.84 16.3616 184.727 16.3616C185.613 16.3616 186.389 16.5725 187.053 16.9944C187.722 17.4163 188.242 18.0086 188.613 18.7714C188.988 19.5342 189.176 20.4269 189.176 21.4497C189.176 22.4639 188.988 23.3502 188.613 24.1088C188.242 24.8673 187.722 25.4575 187.053 25.8794C186.389 26.3012 185.613 26.5122 184.727 26.5122ZM184.727 25.157C185.4 25.157 185.954 24.9845 186.389 24.6393C186.823 24.2941 187.145 23.8403 187.354 23.2778C187.563 22.7153 187.667 22.1059 187.667 21.4497C187.667 20.7934 187.563 20.1819 187.354 19.6151C187.145 19.0484 186.823 18.5903 186.389 18.2409C185.954 17.8914 185.4 17.7167 184.727 17.7167C184.053 17.7167 183.499 17.8914 183.065 18.2409C182.63 18.5903 182.308 19.0484 182.1 19.6151C181.891 20.1819 181.786 20.7934 181.786 21.4497C181.786 22.1059 181.891 22.7153 182.1 23.2778C182.308 23.8403 182.63 24.2941 183.065 24.6393C183.499 24.9845 184.053 25.157 184.727 25.157ZM191.478 29.9894V16.4894H192.936V18.0491H193.115C193.225 17.8786 193.379 17.6613 193.575 17.3971C193.775 17.1286 194.061 16.89 194.431 16.6812C194.806 16.4681 195.314 16.3616 195.953 16.3616C196.779 16.3616 197.508 16.5683 198.139 16.9816C198.77 17.395 199.262 17.9809 199.615 18.7394C199.969 19.498 200.146 20.3928 200.146 21.4241C200.146 22.4639 199.969 23.3651 199.615 24.1279C199.262 24.8865 198.772 25.4745 198.145 25.8921C197.519 26.3055 196.797 26.5122 195.978 26.5122C195.348 26.5122 194.843 26.4078 194.463 26.199C194.084 25.9859 193.792 25.7451 193.588 25.4767C193.383 25.2039 193.225 24.9781 193.115 24.7991H192.987V29.9894H191.478ZM192.961 21.3985C192.961 22.14 193.07 22.7941 193.287 23.3609C193.505 23.9234 193.822 24.3644 194.24 24.684C194.657 24.9994 195.169 25.157 195.774 25.157C196.404 25.157 196.931 24.9909 197.353 24.6585C197.779 24.3218 198.098 23.8701 198.311 23.3034C198.529 22.7323 198.637 22.0974 198.637 21.3985C198.637 20.7082 198.531 20.086 198.318 19.532C198.109 18.9738 197.792 18.5328 197.365 18.2089C196.944 17.8808 196.413 17.7167 195.774 17.7167C195.16 17.7167 194.645 17.8722 194.227 18.1833C193.809 18.4901 193.494 18.9205 193.281 19.4745C193.068 20.0242 192.961 20.6656 192.961 21.3985ZM206.436 26.5122C205.549 26.5122 204.772 26.3012 204.103 25.8794C203.438 25.4575 202.918 24.8673 202.543 24.1088C202.172 23.3502 201.987 22.4639 201.987 21.4497C201.987 20.4269 202.172 19.5342 202.543 18.7714C202.918 18.0086 203.438 17.4163 204.103 16.9944C204.772 16.5725 205.549 16.3616 206.436 16.3616C207.322 16.3616 208.098 16.5725 208.762 16.9944C209.431 17.4163 209.951 18.0086 210.322 18.7714C210.697 19.5342 210.885 20.4269 210.885 21.4497C210.885 22.4639 210.697 23.3502 210.322 24.1088C209.951 24.8673 209.431 25.4575 208.762 25.8794C208.098 26.3012 207.322 26.5122 206.436 26.5122ZM206.436 25.157C207.109 25.157 207.663 24.9845 208.098 24.6393C208.532 24.2941 208.854 23.8403 209.063 23.2778C209.272 22.7153 209.376 22.1059 209.376 21.4497C209.376 20.7934 209.272 20.1819 209.063 19.6151C208.854 19.0484 208.532 18.5903 208.098 18.2409C207.663 17.8914 207.109 17.7167 206.436 17.7167C205.762 17.7167 205.208 17.8914 204.774 18.2409C204.339 18.5903 204.017 19.0484 203.809 19.6151C203.6 20.1819 203.495 20.7934 203.495 21.4497C203.495 22.1059 203.6 22.7153 203.809 23.2778C204.017 23.8403 204.339 24.2941 204.774 24.6393C205.208 24.9845 205.762 25.157 206.436 25.157ZM218.557 24.2622L221.983 16.4894H223.415L219.17 26.3076H217.943L213.775 16.4894H215.182L218.557 24.2622ZM214.696 16.4894V26.3076H213.187V16.4894H214.696ZM222.417 26.3076V16.4894H223.926V26.3076H222.417Z" fill="white"/>
<rect x="1" y="1.30762" width="238" height="36" rx="11" stroke="url(#paint0_linear_111_1391)" stroke-width="2"/>
<defs>
<linearGradient id="paint0_linear_111_1391" x1="234.211" y1="0.307617" x2="28.6702" y2="44.3789" gradientUnits="userSpaceOnUse">
<stop stop-color="#2ECEF2"/>
<stop offset="1" stop-color="#EE05F2"/>
</linearGradient>
</defs>
</svg>
